<svg width="60" height="113" fill="none" xmlns="http://www.w3.org/2000/svg"><path d="M17.24 100.606s12.77-.92 23.008 5.414c7.852 4.857 15.235 6.514 18.37 6.946a1.491 1.491 0 001.382-.412s-12.808-13.48-9.102-32.48c3.706-19 3.706-30.645-1.236-45.354-4.941-14.71-2.059-14.71 2.883-17.366 4.941-2.656 8.647-6.537 1.647-12.87-7-6.334-15.186-5.925-21.697 1.02-6.51 6.947-5.238 13.076-17.59 21.86C3.15 35.727 3.782 33.29 2.25 40.645.717 48 7.761 48.791 10.62 47.361c0 0-7.697 7.176-4.99 9.832 2.705 2.655 8.655 3.473 7.842 11.645-.813 8.172-7.387 24.822 3.768 31.768z" fill="#048738"/><path d="M15.073 101.76s13.252-2.043 23.59 4.292A48.775 48.775 0 0058.984 113s-13.307-13.897-9.565-32.902c3.743-19.005 3.743-30.654-1.247-45.368-4.99-14.714-2.08-14.714 2.91-17.37 4.991-2.657 8.734-6.54 1.664-12.875S37.41-1.442 30.835 5.507c-6.576 6.948-5.291 13.079-17.765 21.866C1.198 35.737 1.837 33.3.289 40.657c-1.548 7.357 3.49 10.626 6.377 9.196 0 0-5.697 4.7-2.964 7.357 2.733 2.656 8.742 3.474 7.92 11.648-.82 8.175-7.814 25.954 3.451 32.902z" fill="#01F061"/><path d="M52.23 4.302C48.529 1.002 44.49-.38 40.553.09c-1.57.503-7.79 2.893-6.336 8.837 1.654 6.763 17.76 10.12 21.351 3.451 1.002-2.116.4-4.74-3.34-8.075z" fill="#038734" style="mix-blend-mode:multiply"/><path d="M32.574 96.412C22.425 88.327 9.08 107.117 9.474 83c-.867 7.221-.32 14.661 5.972 18.623 0 0 13.139-2.069 23.39 4.344A47.702 47.702 0 0058.983 113S47.561 100.813 48.97 83.615c-.004-.003-6.246 20.881-16.395 12.797z" fill="#18D665" style="mix-blend-mode:screen"/><path d="M36.035 15s5.586 3.1 1.392 4.34c-4.193 1.24-17.452 16.433-25.852 23.719C3.5 50.063 1.17 46.731 1 46.462c1.12 2.713 3.493 3.907 5.34 3.439.204-.072.408-.144.626-.228 9.254-3.54 23.059-18.964 28.161-23.666C40.229 21.304 51 16.809 51 16.809 44.249 19.599 36.035 15 36.035 15z" fill="#00CF53" style="mix-blend-mode:multiply"/><path d="M26.853 20.873C32.038 13.441 36 13.648 36 13.648 29.44 9.484 33.7 3.47 34.05 3a22.285 22.285 0 00-1.669 1.564c-6.692 7.02-5.384 13.212-18.08 22.09C2.22 35.102 2.87 32.64 1.295 40.071.514 43.755 1.38 46.42 2.809 48c-6.46-9.612 18.86-19.697 24.044-27.127z" fill="#18D665" style="mix-blend-mode:screen"/><path d="M15.058 85.669c-.595-12.862 7.333-16.251 5.729-19.332-1.604-3.081 1.414-3.476.327-5.7-1.088-2.223-2.313-2.695-1.855-4.698.458-2.002-5.26-5.63-4.31-11.056 0 0-4.703 2.199-7.987-3.578A10.552 10.552 0 016.27 32c-1.247.832-2.159 1.447-2.85 2.003a13.963 13.963 0 001.403 9.998c3.22 5.87 6.492 3.774 6.492 3.774s-.458 2.927 2.75 5.777.382 4.277 1.719 5.95c1.336 1.674 1.26 4.832.725 7.759-.534 2.927-2.215 3.543-1.91 6.162.306 2.618-3.36 5.237-2.825 13.247A36.632 36.632 0 0015.985 102a39.814 39.814 0 013.564-.188c-1.5-2.16-4.074-7.116-4.491-16.143zM19.75 30.86c3.199 5.056 7.037 3.396 7.037 3.396s-2.08 6.264 1.759 10.942c3.837 4.68 1.295 8.83 3.446 9.509 2.15.679-1.608 2.792-.328 4.98 1.279 2.189-5.128 10.792-6.482 19.546-1.252 8.206.885 16.552 5.97 23.312 1.403.394 2.776.88 4.108 1.455-2.303-3.093-8.21-12.24-6.36-22.579 2.284-12.753 8.2-19.59 6.921-24.661-1.28-5.072 1.519-3.487-.8-5.298-2.318-1.811 1.6-1.057-2.478-6.49-4.078-5.434-3.01-12.112-1.985-14.055 0 0-4.171 2.207-7.929-2.774-3.453-4.576-.566-9.39-.075-10.143a31.17 31.17 0 01-4.288 5.114c-.4 1.542-.637 4.39 1.485 7.746z" fill="#1DA4E9"/><path d="M39.972 85.663c1.509-14.822 7.782-29.845 3.398-37.456-4.383-7.612-7.235-17.39-2.486-25.111 0 0-6.312 3.603-10.846-1.354C25.509 16.79 28.132 9.019 28.138 9a42.523 42.523 0 00-3.86 6.127c-.491 2.583-.538 6.138 1.615 9.394 3.975 6.01 9.36 2.131 9.36 2.131s-4.591 6.282 0 14.169c4.591 7.886 7.085 10.797 2.487 24.74-4.598 13.941-8.5 24.694 3.5 42.111A51.621 51.621 0 0050 111c-.042-.039-11.535-10.542-10.028-25.337z" fill="#1F9EF3"/><path d="M11.772 38.673c2.97 3.51 7.539 2.976 7.539 2.976s.076 6.999 3.58 10.442c3.502 3.444-.153 5.046 1.675 6.648 1.827 1.603-.61 5.558.076 7.014.685 1.455-5.636 7.559-6.245 19.004-.44 8.268 2.016 14.209 3.416 16.879 1.2.057 2.503.17 3.867.364-1.39-2.69-5.839-12.278-3.704-21.287 2.513-10.605 7.006-15.565 6.093-17.32-.914-1.754 1.666-3.89.718-5.34-.947-1.45-1.632-2.213-1.023-4.578.61-2.365-7.276-8.173-4.713-15.556 0 0-4.73 2.967-7.928-.848A9.397 9.397 0 0113.904 27c-.365.264-.752.55-1.155.84-.824.591-1.58 1.123-2.286 1.614 0 0-1.661 5.71 1.309 9.22z" fill="#1DA4E9"/></svg>