<svg width="86" height="26" fill="none" xmlns="http://www.w3.org/2000/svg"><path d="M1.02 16.392a.396.396 0 01-.386-.26c-.046-.128-.093-.206-.128-.199-.035.007-.05.096-.046.232a.396.396 0 01-.261.385c-.128.047-.205.094-.199.129.007.034.096.05.232.045a.396.396 0 01.386.261c.046.128.093.206.128.199.035-.007.05-.096.046-.232a.396.396 0 01.26-.385c.129-.047.206-.094.2-.129-.007-.034-.097-.05-.233-.046zm15.422-1.041v-4.313h12.639v4.313h-4.376v10.24h-3.887V15.35h-4.376zm13.655-4.313h3.945v7.618h.118l5.157-7.618h3.36v14.553H38.73v-7.638h-.098l-5.255 7.638h-3.281V11.038zm24.988 2.442a4.658 4.658 0 00-1.895-1.802 6.006 6.006 0 00-2.836-.64h-6.272v14.553h3.946v-4.318h2.188a6.477 6.477 0 002.911-.618 4.65 4.65 0 001.944-1.76 5.101 5.101 0 00.694-2.7 5.296 5.296 0 00-.68-2.715zm-3.706 3.78c-.18.302-.444.545-.761.698-.376.175-.787.26-1.201.249h-1.39v-4.005h1.39c.412-.01.822.07 1.201.235a1.7 1.7 0 01.761.678 2.309 2.309 0 010 2.145zm14.328 8.33l-4.454-5.879h-.566v5.88H56.74V11.038h3.946v5.49h.508l4.18-5.49h4.98l-5.547 6.993 5.86 7.56h-4.961zm15.255-14.551H75.57l-4.804 14.553h4.257l.843-2.794h4.801l.842 2.794h4.257l-4.805-14.553zm-4.203 8.81l1.45-4.806h.117l1.45 4.805h-3.017zM10.275.217h6.423v.79H11.19V3.88h2.872c1.037 0 1.825.213 2.365.64a2.225 2.225 0 01.809 1.856 2.316 2.316 0 01-.872 1.944c-.581.452-1.415.678-2.502.678h-3.588V.218zm3.575 8.04c.811 0 1.424-.154 1.838-.464a1.614 1.614 0 00.62-1.38 1.563 1.563 0 00-.608-1.348c-.405-.296-1.022-.445-1.85-.445h-2.659v3.638h2.66zM36.704.217v8.78h-.916V1.02h-4.24l-.1 2.935a17.891 17.891 0 01-.294 2.929 3.638 3.638 0 01-.709 1.656 1.6 1.6 0 01-1.267.545 2.996 2.996 0 01-.702-.087l.075-.828c.135.032.274.05.414.05a1.088 1.088 0 00.897-.44c.276-.407.454-.872.52-1.36.137-.807.216-1.622.238-2.44l.126-3.763h5.958zm9.012 3.839c.548.468.822 1.154.822 2.057 0 .945-.29 1.662-.872 2.15-.581.49-1.42.735-2.515.735h-3.487V.218h.916v3.135h2.76c1.036 0 1.828.234 2.376.703zm-.74 3.662a1.976 1.976 0 00.634-1.593c0-1.346-.828-2.02-2.484-2.02H40.58v4.153h2.546c.811 0 1.428-.18 1.85-.54zM59.332.217v8.78H48.57V.218h.915v7.978H53.5V.217h.916v7.978h4.001V.217h.916zm8.579 6.435H63.02l-1.053 2.346H61l4.014-8.78h.915l4.014 8.78h-.978L67.91 6.652zm-.338-.753l-2.108-4.716L63.358 5.9h4.215zM77.444.217v8.78h-.916V6.339h-2.621a7.04 7.04 0 01-.502-.025l-1.844 2.685h-.99l1.994-2.848a2.67 2.67 0 01-1.48-1.022 3.057 3.057 0 01-.515-1.8c0-.987.312-1.752.935-2.295.623-.544 1.465-.816 2.527-.816h3.412zm-5.312 4.748c.422.389 1.039.583 1.85.583h2.546V1.02H74.07c-.82 0-1.453.194-1.9.583a2.492 2.492 0 00-.038 3.362zM20.4 8.695a4.435 4.435 0 01-1.725-1.666 4.866 4.866 0 010-4.756A4.436 4.436 0 0120.4.608 5.295 5.295 0 0125.313.6a4.45 4.45 0 011.718 1.666 4.847 4.847 0 010 4.769 4.447 4.447 0 01-1.718 1.666 5.295 5.295 0 01-4.913-.007zm4.423-.744a3.547 3.547 0 001.372-1.36 4.039 4.039 0 000-3.88 3.547 3.547 0 00-1.372-1.359 4.178 4.178 0 00-3.927 0 3.578 3.578 0 00-1.384 1.36 3.993 3.993 0 000 3.88 3.578 3.578 0 001.384 1.359 4.178 4.178 0 003.927 0z" fill="#fff"/><path d="M25.158 4.192a1.844 1.844 0 00-.955-1.582c-1.022-.647-1.553-.512-1.553-.512a.317.317 0 01-.222-.376c.077-.28.704-.231 1.322 0 .617.232 1.534.753 1.949 2.287.081.239.098.495.048.742 0 0-.068.164-.386.135-.318-.028-.193-.463-.193-.463l-.01-.231zM2.28 15.315a3.42 3.42 0 004.018-.117c.115-.088.226-.17.334-.247.107-.108.224-.207.348-.295a2.84 2.84 0 011.675-.483c.347-.006.692.048 1.02.161a2.096 2.096 0 011.26 1.157c.125.289.199.596.22.909h4.005a6.58 6.58 0 00-.645-2.408 5.489 5.489 0 00-1.401-1.777 6.064 6.064 0 00-2.037-1.104 8.213 8.213 0 00-2.54-.376 7.375 7.375 0 00-3.545.854 6.273 6.273 0 00-2.53 2.525 6.557 6.557 0 00-.456 1.021c.09.058.18.116.274.18zm8.607 5.753a2.1 2.1 0 01-.523.635c-.223.18-.478.316-.752.4a3.214 3.214 0 01-.977.137 2.914 2.914 0 01-1.645-.449 2.439 2.439 0 01-.399-.333l-.113-.074a3.42 3.42 0 00-4.018.116c-.1.077-.196.148-.29.216.085.199.176.393.278.578a6.225 6.225 0 002.51 2.525 8.034 8.034 0 006.388.366 6.258 6.258 0 002.031-1.299 5.963 5.963 0 001.27-1.768 5.456 5.456 0 00.513-1.89h-4.005c-.04.294-.13.578-.268.84z" fill="#fff"/><path d="M6.417 15.798c.134.127-.049.56-.445 1.144a2.056 2.056 0 00.07 2.414c.43.56.637.982.511 1.116-.126.134-.56-.049-1.144-.445a2.055 2.055 0 00-2.414.07c-.56.43-.982.637-1.116.511-.134-.126.049-.56.446-1.144a2.056 2.056 0 00-.07-2.414c-.43-.56-.638-.982-.512-1.116.126-.134.56.049 1.144.446a2.055 2.055 0 002.414-.07c.56-.43.982-.638 1.116-.512z" fill="#5AC4FF"/><path d="M7.92 18.494a.557.557 0 01-.588-.288c-.09-.17-.17-.268-.218-.252-.047.016-.05.144-.019.332a.557.557 0 01-.288.588c-.17.09-.268.17-.252.218.016.047.144.051.332.019a.557.557 0 01.588.289c.09.169.17.267.218.251.047-.016.051-.143.019-.332A.557.557 0 018 18.73c.169-.09.267-.17.251-.218-.016-.047-.144-.05-.332-.019z" fill="#fff"/><path d="M4.627 13.957a.465.465 0 01-.452-.306c-.055-.15-.11-.241-.151-.233-.041.008-.059.113-.054.272a.465.465 0 01-.306.452c-.15.055-.24.11-.233.15.008.042.113.06.272.055a.465.465 0 01.452.306c.055.15.11.24.15.233.042-.008.06-.113.055-.272a.465.465 0 01.306-.453c.15-.054.24-.11.233-.15-.008-.041-.113-.059-.272-.054z" fill="#5AC4FF"/><path d="M1.928 18.11a.223.223 0 01-.217-.147c-.026-.072-.053-.116-.072-.112-.02.004-.028.054-.026.13a.223.223 0 01-.147.217c-.072.027-.115.053-.112.073.004.02.054.028.13.026a.222.222 0 01.218.146c.026.072.053.116.072.112.02-.003.028-.054.026-.13a.223.223 0 01.147-.217c.072-.026.115-.053.112-.072-.004-.02-.054-.029-.131-.026z" fill="#fff"/></svg>