<svg width="390" height="925" fill="none" xmlns="http://www.w3.org/2000/svg"><path fill-rule="evenodd" clip-rule="evenodd" d="M-114.4 50.486c11.575-17.06 75.272 3.45 166.643 49.676 56.143 28.505 116.772 41.959 173.202 38.437 56.431-3.523 105.768-23.841 140.95-58.047C423.756 25.048 508.378-10.819 530.652 4.13l-6.845 280.32 6.063-.415 2.234 637.242c-25.564 15.385-76.546-17.918-136.491-83.015-36.755-40.109-90.036-65.552-152.211-72.686-62.175-7.135-130.053 4.404-193.912 32.968-103.92 46.297-175.629 65.516-187.359 45.852-11.378-19.074-9.881-424.414 72.046-512.797L-114.4 50.486z" fill="#333"/></svg>