<svg width="120" height="146" fill="none" xmlns="http://www.w3.org/2000/svg"><path d="M120 80.428c-.028 3.666-8.05 6.877-20.711 8.99-7.788 1.282-15.005 5.237-20.62 11.299-5.615 6.062-9.338 13.92-10.637 22.447-2.136 13.864-5.195 22.616-8.534 22.585-3.34-.031-6.264-8.838-8.189-22.74-1.169-8.55-4.772-16.474-10.294-22.638-5.521-6.164-12.677-10.252-20.444-11.678C7.944 86.347-.028 82.99 0 79.323c.027-3.667 8.049-6.878 20.711-8.99 7.788-1.284 15.005-5.24 20.62-11.3 5.614-6.063 9.338-13.92 10.637-22.446C54.106 22.722 57.164 13.97 60.503 14c3.34.03 6.265 8.837 8.189 22.74 1.168 8.55 4.77 16.474 10.292 22.638 5.522 6.165 12.678 10.253 20.445 11.678 12.627 2.346 20.599 5.704 20.571 9.37zM36 23.68c-.008 1.305-2.415 2.448-6.213 3.2-2.337.457-4.502 1.865-6.186 4.024-1.685 2.158-2.802 4.956-3.191 7.992-.641 4.937-1.559 8.053-2.56 8.042-1.003-.011-1.88-3.147-2.457-8.097-.351-3.044-1.432-5.866-3.088-8.06-1.657-2.196-3.804-3.651-6.134-4.159-3.788-.835-6.18-2.03-6.171-3.336.008-1.306 2.415-2.449 6.214-3.201 2.336-.457 4.501-1.865 6.186-4.024 1.684-2.158 2.8-4.956 3.19-7.992.642-4.936 1.56-8.053 2.561-8.042 1.002.011 1.88 3.147 2.457 8.097.35 3.044 1.43 5.866 3.087 8.06 1.657 2.196 3.804 3.651 6.134 4.159 3.788.835 6.18 2.03 6.171 3.336z" fill="#fff"/></svg>