<svg width="63" height="80" fill="none" xmlns="http://www.w3.org/2000/svg"><path d="M1.453 49.764c-.02-1.641 3.296-3.14 8.553-4.185 3.233-.635 6.207-2.461 8.495-5.218 2.289-2.757 3.774-6.303 4.244-10.13.774-6.222 1.974-10.162 3.366-10.175 1.392-.012 2.684 3.907 3.602 10.114.558 3.818 2.126 7.336 4.477 10.052 2.352 2.716 5.368 4.49 8.615 5.067 5.28.951 8.63 2.392 8.648 4.033.02 1.642-3.296 3.141-8.553 4.186-3.233.635-6.207 2.461-8.495 5.218-2.289 2.757-3.774 6.303-4.244 10.13-.774 6.221-1.975 10.162-3.366 10.175-1.392.012-2.684-3.907-3.602-10.114-.558-3.817-2.125-7.336-4.477-10.052-2.352-2.716-5.367-4.49-8.615-5.067-5.28-.951-8.63-2.392-8.648-4.034zM41 13.475c.005-.723 1.476-1.357 3.797-1.773 1.428-.254 2.751-1.034 3.78-2.23 1.03-1.195 1.712-2.745 1.95-4.428C50.92 2.31 51.48.583 52.093.59c.612.006 1.148 1.743 1.501 4.486.215 1.687.875 3.25 1.887 4.466 1.013 1.216 2.325 2.022 3.749 2.303 2.315.463 3.776 1.126 3.771 1.849-.005.723-1.476 1.357-3.797 1.773-1.428.254-2.751 1.034-3.78 2.23-1.03 1.195-1.712 2.745-1.95 4.427-.392 2.735-.953 4.462-1.565 4.456-.613-.006-1.149-1.744-1.502-4.486-.214-1.687-.874-3.25-1.886-4.466-1.013-1.216-2.325-2.022-3.749-2.304-2.315-.462-3.776-1.125-3.771-1.848z" fill="#fff"/></svg>