<svg width="46" height="50" fill="none" xmlns="http://www.w3.org/2000/svg"><path d="M46 31.16c-.008 1.057-2.28 1.983-5.868 2.592-2.207.37-4.252 1.511-5.843 3.26-1.59 1.748-2.645 4.014-3.013 6.474-.605 3.999-1.472 6.523-2.418 6.514-.947-.009-1.775-2.549-2.32-6.559-.332-2.466-1.352-4.752-2.917-6.53-1.564-1.777-3.592-2.956-5.793-3.368-3.577-.676-5.836-1.645-5.828-2.702.008-1.058 2.28-1.984 5.869-2.593 2.206-.37 4.25-1.511 5.842-3.26 1.59-1.748 2.645-4.014 3.014-6.473.605-4 1.471-6.524 2.418-6.515.946.009 1.775 2.55 2.32 6.559.33 2.466 1.352 4.752 2.916 6.53 1.564 1.777 3.592 2.957 5.793 3.368 3.577.676 5.836 1.645 5.828 2.703zM22 12.1c-.005.669-1.476 1.254-3.797 1.638-1.428.234-2.751.955-3.78 2.059-1.03 1.104-1.712 2.535-1.95 4.089-.392 2.525-.953 4.12-1.565 4.114-.612-.006-1.149-1.61-1.501-4.142-.215-1.558-.875-3.002-1.888-4.124-1.012-1.123-2.324-1.868-3.748-2.128C1.456 13.18-.005 12.567 0 11.9c.005-.667 1.476-1.252 3.797-1.637 1.428-.234 2.751-.955 3.78-2.059C8.608 7.1 9.29 5.668 9.528 4.114 9.92 1.59 10.48-.006 11.093 0c.613.006 1.149 1.61 1.502 4.142.214 1.558.874 3.001 1.886 4.124 1.013 1.123 2.325 1.868 3.749 2.128 2.315.427 3.776 1.039 3.771 1.707z" fill="#5AC4FF"/></svg>