<svg width="44" height="56" fill="none" xmlns="http://www.w3.org/2000/svg"><path d="M.61 34.483c-.014-1.17 2.306-2.236 5.986-2.979 2.263-.451 4.345-1.751 5.946-3.714 1.6-1.963 2.64-4.488 2.968-7.213.54-4.43 1.38-7.236 2.354-7.245.974-.008 1.88 2.783 2.523 7.203.392 2.72 1.49 5.225 3.137 7.16 1.647 1.934 3.758 3.198 6.032 3.61 3.696.679 6.04 1.706 6.054 2.875.014 1.168-2.306 2.236-5.986 2.978-2.263.452-4.345 1.752-5.946 3.715-1.6 1.962-2.64 4.487-2.968 7.212-.54 4.43-1.38 7.237-2.354 7.245-.974.009-1.88-2.782-2.523-7.203-.392-2.719-1.49-5.225-3.137-7.16-1.647-1.934-3.758-3.198-6.031-3.61C2.968 36.678.624 35.65.61 34.483zM28 8.924c.004-.5 1.073-.94 2.762-1.228 1.038-.175 2-.715 2.749-1.544.748-.828 1.245-1.901 1.418-3.066.285-1.895.693-3.09 1.138-3.086.445.004.835 1.207 1.092 3.107.156 1.168.636 2.25 1.372 3.093.736.842 1.69 1.4 2.726 1.595 1.684.32 2.747.78 2.743 1.28-.004.501-1.073.94-2.762 1.229-1.038.175-2 .715-2.749 1.544-.748.828-1.245 1.901-1.418 3.066-.285 1.894-.693 3.09-1.138 3.086-.445-.004-.835-1.207-1.092-3.107-.156-1.168-.636-2.25-1.372-3.093-.736-.842-1.69-1.4-2.726-1.595-1.684-.32-2.747-.78-2.743-1.28z" fill="#04B"/></svg>