<svg width="60" height="113" viewBox="0 0 60 113" fill="none" xmlns="http://www.w3.org/2000/svg">
<path d="M17.2399 100.606C17.2399 100.606 30.0106 99.6866 40.2483 106.02C48.1003 110.877 55.4829 112.534 58.6186 112.966C58.8652 113.02 59.1215 113.01 59.3632 112.938C59.6049 112.865 59.8241 112.733 60 112.554C60 112.554 47.1916 99.0737 50.8977 80.0739C54.6037 61.0742 54.6037 49.4291 49.6623 34.7196C44.7209 20.0101 47.6034 20.0101 52.5448 17.3543C57.4862 14.6984 61.1922 10.8167 54.1919 4.48344C47.1916 -1.84981 39.0062 -1.44118 32.4954 5.50493C25.9847 12.4511 27.2566 18.5801 14.9053 27.3649C3.1493 35.7264 3.78205 33.2896 2.24947 40.6443C0.716934 47.9991 7.76105 48.7907 10.62 47.3606C10.62 47.3606 2.92318 54.5366 5.62905 57.1925C8.33493 59.8484 14.2855 60.6656 13.4721 68.8375C12.6587 77.0095 6.08526 93.6598 17.2399 100.606Z" fill="#048738"/>
<path d="M15.0734 101.76C15.0734 101.76 28.3247 99.7166 38.6636 106.052C44.8179 109.842 51.7639 112.218 58.983 113C58.983 113 45.6757 99.1035 49.4183 80.098C53.161 61.0925 53.161 49.444 48.1708 34.7301C43.1805 20.0162 46.0914 20.0162 51.0817 17.3595C56.072 14.7028 59.8147 10.82 52.7451 4.4848C45.6756 -1.85035 37.4093 -1.4416 30.8341 5.50661C24.2589 12.4549 25.5435 18.5857 13.07 27.3732C1.19768 35.7371 1.83669 33.2996 0.288946 40.6566C-1.25874 48.0135 3.77901 51.2833 6.66628 49.8527C6.66628 49.8527 0.969369 54.553 3.70196 57.2097C6.4346 59.8664 12.444 60.6838 11.6226 68.8582C10.8011 77.0327 3.80844 94.812 15.0734 101.76Z" fill="#01F061"/>
<path d="M52.2295 4.30208C48.5289 1.00291 44.4903 -0.379788 40.5543 0.0888364C38.9842 0.591641 32.7648 2.98214 34.2184 8.92617C35.8724 15.6889 51.9786 19.0468 55.5694 12.3771C56.5708 10.261 55.9695 7.63619 52.2295 4.30208Z" fill="#038734" style="mix-blend-mode:multiply"/>
<path d="M32.5739 96.4115C22.4252 88.3273 9.08062 107.117 9.47372 83C8.60669 90.2214 9.15425 97.6614 15.4457 101.623C15.4457 101.623 28.5846 99.5544 38.8359 105.967C44.9379 109.804 51.8251 112.208 58.9831 113C58.9831 113 47.5609 100.813 48.9688 83.6145C48.9653 83.6122 42.7228 104.496 32.5739 96.4115Z" fill="#18D665" style="mix-blend-mode:screen"/>
<path d="M36.0352 15C36.0352 15 41.6205 18.1005 37.4274 19.3406C33.2344 20.5808 19.9754 35.773 11.5752 43.059C3.4999 50.0633 1.16875 46.7314 1 46.4624C2.11941 49.1749 4.49261 50.3687 6.33992 49.9008C6.544 49.8288 6.74818 49.7566 6.96585 49.6733C16.2197 46.1337 30.025 30.7089 35.127 26.0066C40.229 21.3043 51 16.8086 51 16.8086C44.2488 19.599 36.0352 15 36.0352 15Z" fill="#00CF53" style="mix-blend-mode:multiply"/>
<path d="M26.8533 20.8731C32.0381 13.4412 36 13.6476 36 13.6476C29.44 9.4841 33.7006 3.47117 34.0493 3C33.4662 3.49314 32.9095 4.01523 32.3813 4.56418C25.6894 11.5833 26.9966 17.7764 14.3017 26.6534C2.21862 35.1027 2.86892 32.6403 1.29375 40.0721C0.513234 43.7549 1.38034 46.4203 2.80945 48C-3.65127 38.3884 21.6697 28.3034 26.8533 20.8731Z" fill="#18D665" style="mix-blend-mode:screen"/>
<path d="M15.058 85.6687C14.4634 72.8065 22.3908 69.4176 20.7867 66.3368C19.1827 63.256 22.2013 62.8611 21.1136 60.6374C20.0259 58.4136 18.8008 57.9416 19.259 55.9391C19.7173 53.9367 13.9999 50.3091 14.9491 44.883C14.9491 44.883 10.2459 47.0819 6.96151 41.3054C6.14067 39.9138 5.65101 38.3493 5.53097 36.7347C5.41092 35.1201 5.66378 33.4994 6.26967 32C5.02343 32.8318 4.1111 33.4474 3.42025 34.0031C2.62452 37.3951 3.12528 40.9648 4.82277 44.0011C8.04275 49.8713 11.3152 47.7751 11.3152 47.7751C11.3152 47.7751 10.857 50.7018 14.0651 53.5516C17.2731 56.4012 14.4471 57.829 15.7837 59.5028C17.1203 61.1765 17.0439 64.3343 16.5093 67.261C15.9746 70.1878 14.2942 70.8039 14.5997 73.4226C14.9052 76.0413 11.2389 78.66 11.7736 86.67C12.0393 92.0306 13.4775 97.2656 15.985 102C16.7887 101.919 18.0178 101.827 19.5488 101.812C18.0485 99.6517 15.4753 94.6956 15.058 85.6687Z" fill="#1DA4E9"/>
<path d="M19.7509 30.8602C22.949 35.9163 26.7866 34.256 26.7866 34.256C26.7866 34.256 24.7078 40.5196 28.5455 45.1984C32.3831 49.8772 29.8414 54.0277 31.9916 54.7068C34.142 55.386 30.3843 57.499 31.6636 59.6875C32.9427 61.876 26.5361 70.479 25.1822 79.2328C23.9295 87.4386 26.0665 95.7849 31.1511 102.545C32.5551 102.939 33.9282 103.425 35.2602 104C32.957 100.907 27.0493 91.7608 28.9005 81.4213C31.1838 68.6678 37.1001 61.8316 35.821 56.76C34.5417 51.6883 37.34 53.273 35.0214 51.4619C32.7029 49.6508 36.6204 50.4054 32.543 44.972C28.4655 39.5385 29.5331 32.8601 30.5583 30.9168C30.5583 30.9168 26.3868 33.1241 22.6292 28.1434C19.1761 23.5665 22.0627 18.7523 22.5544 18C21.3206 19.8429 19.8832 21.557 18.2661 23.1136C17.8666 24.6558 17.6285 27.5046 19.7509 30.8602Z" fill="#1DA4E9"/>
<path d="M39.9716 85.663C41.4808 70.8406 47.754 55.8181 43.3704 48.2066C38.9868 40.5952 36.135 30.8168 40.8837 23.0955C40.8837 23.0955 34.5719 26.6993 30.0378 21.7419C25.5093 16.7905 28.1324 9.0191 28.1389 9C26.6763 10.9347 25.3849 12.9843 24.278 15.1271C23.7868 17.7099 23.7401 21.2655 25.8934 24.521C29.8682 30.5301 35.2529 26.652 35.2529 26.652C35.2529 26.652 30.6617 32.9336 35.2529 40.8205C39.8441 48.7073 42.3381 51.618 37.7399 65.5608C33.142 79.5024 29.2393 90.2547 41.2406 107.672C44.0464 109.042 46.979 110.156 50 111C49.9578 110.961 38.4651 100.458 39.9716 85.663Z" fill="#1F9EF3"/>
<path d="M11.7719 38.6733C14.7418 42.1829 19.3109 41.6489 19.3109 41.6489C19.3109 41.6489 19.3871 48.6477 22.8901 52.0913C26.3931 55.5349 22.7378 57.1371 24.5655 58.7393C26.3931 60.3416 23.9562 64.2966 24.6417 65.7525C25.327 67.2083 19.0063 73.312 18.3971 84.7565C17.957 93.0252 20.413 98.9657 21.8131 101.636C23.0139 101.693 24.3162 101.806 25.6804 102C24.2898 99.3104 19.8414 89.7223 21.9763 80.7128C24.4893 70.1076 28.9823 65.1482 28.0685 63.3934C27.1547 61.6386 29.7348 59.5023 28.7874 58.0527C27.8401 56.603 27.1547 55.84 27.7639 53.4749C28.3731 51.1097 20.4875 45.3022 23.0506 37.919C23.0506 37.919 18.3209 40.886 15.1225 37.0712C13.9779 35.6858 13.2545 34.0001 13.0385 32.2147C12.8225 30.4293 13.123 28.6193 13.9041 27C13.5387 27.2636 13.1524 27.5497 12.7493 27.8392C11.9251 28.4312 11.169 28.9634 10.4631 29.454C10.4631 29.454 8.80192 35.1637 11.7719 38.6733Z" fill="#1DA4E9"/>
</svg>
