<svg width="86" height="26" viewBox="0 0 86 26" fill="none" xmlns="http://www.w3.org/2000/svg">
<path d="M1.0194 16.3925C0.935861 16.3952 0.853596 16.3714 0.784403 16.3245C0.71521 16.2776 0.662636 16.21 0.634204 16.1314C0.587716 16.0037 0.540518 15.9263 0.505708 15.933C0.470898 15.9397 0.455727 16.029 0.459882 16.1649C0.462591 16.2485 0.438798 16.3307 0.391907 16.3999C0.345016 16.4691 0.277434 16.5217 0.198837 16.5501C0.0710787 16.5966 -0.00628595 16.6438 0.000401161 16.6786C0.00708827 16.7134 0.0964281 16.7286 0.232305 16.7244C0.315847 16.7217 0.398109 16.7455 0.467304 16.7924C0.536499 16.8393 0.589081 16.9069 0.61752 16.9855C0.66401 17.1133 0.711206 17.1906 0.746015 17.1839C0.780825 17.1772 0.795999 17.0879 0.791841 16.952C0.789123 16.8685 0.812916 16.7862 0.859808 16.717C0.9067 16.6478 0.974284 16.5952 1.05289 16.5668C1.18063 16.5203 1.258 16.4731 1.25131 16.4383C1.24462 16.4035 1.15528 16.3883 1.0194 16.3925Z" fill="white"/>
<path d="M16.4424 15.3513V11.0381H29.0808V15.3513H24.7052V25.5909H20.818V15.3513H16.4424Z" fill="white"/>
<path d="M30.0966 11.0381H34.0424V18.6564H34.1597L39.3165 11.0381H42.6764V25.5909H38.7306V17.9531H38.6329L33.3783 25.5909H30.0966V11.0381Z" fill="white"/>
<path d="M55.0851 13.4798C54.6386 12.7105 53.9811 12.0851 53.1903 11.6776C52.3114 11.2355 51.3374 11.016 50.3538 11.0385H44.0823V25.5915H48.0277V21.2735H50.216C51.2213 21.296 52.2179 21.0841 53.1271 20.6547C53.9306 20.2669 54.6056 19.6562 55.0715 18.8954C55.549 18.0769 55.7891 17.1417 55.7649 16.1944C55.7858 15.2449 55.551 14.3073 55.0851 13.4798ZM51.3791 17.2603C51.1991 17.5624 50.9345 17.805 50.618 17.9582C50.242 18.1325 49.8308 18.2175 49.4166 18.2066H48.0277V14.2025H49.4166C49.8294 14.1919 50.2395 14.2721 50.618 14.4374C50.935 14.5801 51.2006 14.8166 51.3791 15.1149C51.5527 15.4458 51.6433 15.8139 51.6433 16.1876C51.6433 16.5613 51.5526 16.9294 51.3791 17.2603Z" fill="white"/>
<path d="M65.7068 25.5909L61.2531 19.7112H60.6866V25.5909H56.7407V11.0381H60.6866V16.5272H61.1945L65.3747 11.0381H70.3558L64.8083 18.0313L70.6685 25.5909H65.7068Z" fill="white"/>
<path d="M80.9615 11.0385H75.5708L70.7672 25.5915H75.0243L75.8666 22.7979H80.668L81.5103 25.5915H85.7674L80.9615 11.0385ZM76.7587 19.8484L78.2086 15.0426H78.326L79.7759 19.8484H76.7587Z" fill="white"/>
<path d="M10.2754 0.217365H16.6975V1.00758H11.1911V3.87995H14.0635C15.1002 3.87995 15.8884 4.09318 16.4279 4.51964C16.7 4.74306 16.9151 5.02782 17.0557 5.35053C17.1964 5.67325 17.2584 6.02471 17.2369 6.37607C17.2578 6.74626 17.1896 7.11606 17.0379 7.45439C16.8862 7.79272 16.6555 8.08967 16.3652 8.32029C15.7838 8.77185 14.9497 8.99762 13.8628 8.99758H10.2754V0.217365ZM13.8502 8.25754C14.6613 8.25754 15.2738 8.10283 15.6878 7.79341C15.8962 7.63173 16.0618 7.42141 16.1701 7.18086C16.2783 6.94032 16.3259 6.6769 16.3087 6.41368C16.3266 6.15615 16.2804 5.8982 16.1743 5.66289C16.0681 5.42759 15.9053 5.22225 15.7003 5.06527C15.2946 4.76852 14.6779 4.62009 13.8502 4.61998H11.1911V8.25754H13.8502Z" fill="white"/>
<path d="M36.704 0.217365V8.99758H35.7883V1.02004H31.5487L31.4483 3.95515C31.4307 4.93787 31.3321 5.91747 31.1536 6.88399C31.0599 7.48658 30.8162 8.05595 30.445 8.53973C30.2879 8.71947 30.0926 8.86176 29.8733 8.95618C29.6541 9.05059 29.4165 9.09474 29.178 9.08536C28.9412 9.08396 28.7054 9.05449 28.4756 8.99758L28.5509 8.16976C28.6864 8.20247 28.8253 8.21931 28.9648 8.21994C29.1384 8.2237 29.3105 8.18579 29.4666 8.10939C29.6226 8.033 29.7581 7.92033 29.8616 7.78083C30.1376 7.37332 30.3157 6.90761 30.3822 6.41997C30.5187 5.61334 30.5984 4.7981 30.6205 3.9803L30.746 0.217365H36.704Z" fill="white"/>
<path d="M45.7163 4.0555C46.2638 4.52394 46.5376 5.20965 46.5378 6.11263C46.5378 7.05767 46.2472 7.77473 45.6661 8.26383C45.0847 8.75299 44.2464 8.99758 43.1511 8.99758H39.6641V0.217365H40.5798V3.35307H43.3392C44.376 3.35307 45.1683 3.58721 45.7163 4.0555ZM44.9761 7.7182C45.1946 7.51729 45.3649 7.26976 45.4746 6.99398C45.5843 6.7182 45.6304 6.42126 45.6096 6.12521C45.6096 4.77889 44.7818 4.10571 43.1261 4.10568H40.5798V8.25754H43.1261C43.937 8.25754 44.5537 8.07776 44.9761 7.7182Z" fill="white"/>
<path d="M59.3318 0.217365V8.99758H48.5697V0.217365H49.4854V8.19479H53.4992V0.217365H54.4149V8.19479H58.4161V0.217365H59.3318Z" fill="white"/>
<path d="M67.9112 6.65198H63.0194L61.9658 8.99758H60.9999L65.0138 0.217365H65.9294L69.9432 8.99758H68.9649L67.9112 6.65198ZM67.5726 5.89937L65.4653 1.18313L63.3581 5.89937H67.5726Z" fill="white"/>
<path d="M77.4439 0.217365V8.99758H76.5284V6.33836H73.9067C73.7895 6.33836 73.6223 6.33002 73.405 6.31333L71.5611 8.99758H70.5703L72.5646 6.15024C71.9679 5.99086 71.4449 5.62963 71.0846 5.12802C70.7291 4.59657 70.5493 3.96705 70.5703 3.32804C70.5703 2.34143 70.8818 1.57629 71.5048 1.03261C72.1276 0.489189 72.9701 0.217439 74.0323 0.217365H77.4439ZM72.1319 4.96492C72.554 5.35374 73.1708 5.54815 73.9821 5.54815H76.5284V1.02004H74.0698C73.2502 1.02004 72.6167 1.21449 72.1695 1.60338C71.7449 2.05795 71.5056 2.65486 71.4987 3.27685C71.4917 3.89885 71.7176 4.50097 72.1319 4.96492Z" fill="white"/>
<path d="M20.3999 8.6952C19.683 8.30881 19.0863 7.73243 18.6753 7.0293C18.2684 6.30281 18.0547 5.48405 18.0547 4.65136C18.0547 3.81867 18.2684 2.9999 18.6753 2.27342C19.0863 1.57033 19.683 0.993974 20.3999 0.607522C21.1573 0.209599 21.9999 0.0011448 22.8555 4.702e-06C23.7111 -0.0011354 24.5542 0.205072 25.3127 0.600976C26.0267 0.989023 26.6209 1.56514 27.0307 2.26686C27.4418 2.99434 27.6579 3.81575 27.6579 4.65135C27.6579 5.48696 27.4418 6.30837 27.0307 7.03584C26.621 7.73769 26.0268 8.31386 25.3127 8.70174C24.5542 9.09764 23.7111 9.30385 22.8555 9.30271C21.9999 9.30157 21.1573 9.09312 20.3999 8.6952ZM24.8227 7.95052C25.3968 7.63318 25.8717 7.16279 26.1945 6.59166C26.5203 5.99686 26.6911 5.3296 26.6911 4.65142C26.6911 3.97324 26.5203 3.30597 26.1945 2.71116C25.8717 2.14006 25.3968 1.66968 24.8227 1.35231C24.2183 1.03056 23.5442 0.862289 22.8596 0.862289C22.1749 0.862289 21.5008 1.03056 20.8965 1.35231C20.3185 1.66907 19.8392 2.13931 19.5115 2.71116C19.1816 3.30461 19.0084 3.97241 19.0084 4.65142C19.0084 5.33043 19.1816 5.99821 19.5115 6.59166C19.8392 7.16354 20.3185 7.63379 20.8965 7.95052C21.5008 8.27219 22.1749 8.44042 22.8596 8.44042C23.5442 8.44042 24.2183 8.27219 24.8227 7.95052Z" fill="white"/>
<path d="M25.1584 4.19185C25.1525 3.86741 25.0611 3.55027 24.8934 3.27247C24.7257 2.99466 24.4876 2.76603 24.2033 2.60966C23.1807 1.96327 22.65 2.09834 22.65 2.09834C22.5718 2.07613 22.5051 2.02466 22.4638 1.95461C22.4225 1.88456 22.4097 1.8013 22.4282 1.72208C22.5053 1.44231 23.1324 1.49054 23.7499 1.72208C24.3673 1.95363 25.2838 2.47459 25.6987 4.00855C25.7803 4.24751 25.7969 4.50389 25.7469 4.7514C25.7469 4.7514 25.6794 4.91541 25.361 4.88647C25.0426 4.85753 25.168 4.42339 25.168 4.42339L25.1584 4.19185Z" fill="white"/>
<path d="M2.2802 15.3151C2.87647 15.7222 3.58631 15.9302 4.30801 15.9092C5.02972 15.8883 5.72627 15.6394 6.2979 15.1984C6.41291 15.11 6.52425 15.0274 6.63192 14.9506C6.73924 14.8426 6.85574 14.7442 6.9801 14.6563C7.47397 14.3236 8.05991 14.1545 8.65512 14.1729C9.00209 14.1669 9.34745 14.2214 9.67569 14.334C9.95753 14.4328 10.2166 14.5873 10.4376 14.7882C10.6505 14.9856 10.8202 15.225 10.9357 15.4914C11.0597 15.7796 11.134 16.0867 11.1554 16.3997H15.1599C15.1004 15.5635 14.8815 14.7463 14.5152 13.9922C14.1766 13.3087 13.6992 12.7033 13.1136 12.2146C12.512 11.7193 11.8206 11.3446 11.0772 11.111C10.2557 10.8533 9.39883 10.7264 8.5379 10.7349C7.30316 10.7185 6.08405 11.0123 4.99242 11.5895C3.92224 12.168 3.04338 13.0452 2.46289 14.1142C2.28172 14.441 2.12882 14.7826 2.00586 15.1354C2.09554 15.1928 2.18558 15.2508 2.2802 15.3151Z" fill="white"/>
<path d="M10.8868 21.0683C10.7562 21.3123 10.5786 21.5281 10.3643 21.7032C10.1414 21.8833 9.88614 22.0192 9.61227 22.1036C9.29565 22.1991 8.96618 22.2453 8.63548 22.2403C8.05438 22.2581 7.48125 22.1016 6.98978 21.7911C6.84538 21.6945 6.71171 21.5829 6.59104 21.4579C6.55272 21.4325 6.51672 21.4102 6.47758 21.3836C5.88127 20.9765 5.17144 20.7686 4.44975 20.7896C3.72805 20.8105 3.0315 21.0594 2.45986 21.5004C2.36023 21.577 2.26379 21.6484 2.16968 21.7163C2.25503 21.915 2.34578 22.1093 2.44822 22.2941C3.02132 23.3621 3.89366 24.2395 4.95824 24.8188C5.9411 25.3141 7.01524 25.6022 8.11403 25.6652C9.21282 25.7282 10.3128 25.5648 11.3459 25.1851C12.1009 24.8879 12.7908 24.4467 13.3774 23.8861C13.9055 23.3797 14.3359 22.7804 14.6471 22.1182C14.9306 21.5244 15.1043 20.8841 15.1599 20.2284H11.1555C11.1159 20.522 11.025 20.8063 10.8868 21.0683Z" fill="white"/>
<path d="M6.41712 15.7982C6.55098 15.9245 6.36848 16.3582 5.97166 16.9417C5.72698 17.3001 5.602 17.7267 5.6146 18.1605C5.62721 18.5942 5.77677 19.0128 6.04185 19.3564C6.4719 19.916 6.67926 20.3383 6.55296 20.4721C6.42666 20.606 5.99303 20.4235 5.40939 20.0266C5.05101 19.782 4.6244 19.657 4.19066 19.6697C3.75692 19.6823 3.33829 19.8318 2.99473 20.0969C2.43519 20.5269 2.01288 20.7343 1.87902 20.608C1.74516 20.4817 1.92765 20.048 2.32452 19.4644C2.56916 19.106 2.69412 18.6794 2.68152 18.2457C2.66891 17.812 2.51938 17.3934 2.25435 17.0498C1.82429 16.4902 1.61688 16.0679 1.74319 15.934C1.86949 15.8002 2.30314 15.9827 2.88675 16.3795C3.24511 16.6242 3.67172 16.7492 4.10546 16.7366C4.53921 16.724 4.95784 16.5744 5.30139 16.3093C5.86094 15.8793 6.28325 15.6719 6.41712 15.7982Z" fill="#5AC4FF"/>
<path d="M7.91984 18.4945C7.8039 18.5146 7.68459 18.4975 7.57899 18.4456C7.47338 18.3937 7.3869 18.3097 7.33193 18.2057C7.24222 18.0367 7.16133 17.938 7.1141 17.9541C7.06687 17.9702 7.06315 18.0978 7.09543 18.2864C7.1155 18.4023 7.09837 18.5216 7.04649 18.6272C6.99462 18.7328 6.91066 18.8193 6.80663 18.8743C6.63759 18.964 6.53895 19.0449 6.55506 19.0921C6.57117 19.1393 6.6987 19.1431 6.8873 19.1108C7.00323 19.0907 7.12254 19.1078 7.22815 19.1597C7.33375 19.2116 7.42024 19.2955 7.47522 19.3996C7.56494 19.5686 7.64582 19.6673 7.69305 19.6511C7.74028 19.635 7.74401 19.5075 7.71172 19.3189C7.69164 19.203 7.70876 19.0836 7.76064 18.978C7.81252 18.8724 7.89648 18.786 8.00052 18.731C8.16954 18.6413 8.26819 18.5604 8.25208 18.5132C8.23596 18.4659 8.10845 18.4622 7.91984 18.4945Z" fill="white"/>
<path d="M4.62661 13.957C4.52859 13.9602 4.43207 13.9322 4.35089 13.8772C4.26971 13.8222 4.20802 13.7429 4.17466 13.6507C4.12012 13.5008 4.06474 13.41 4.02389 13.4179C3.98304 13.4257 3.96525 13.5305 3.97013 13.69C3.9733 13.788 3.94539 13.8845 3.89037 13.9657C3.83535 14.0469 3.75606 14.1086 3.66384 14.1419C3.51394 14.1965 3.42317 14.2518 3.43101 14.2927C3.43886 14.3335 3.54369 14.3513 3.70311 14.3465C3.80113 14.3433 3.89764 14.3712 3.97883 14.4262C4.06001 14.4812 4.1217 14.5605 4.15507 14.6527C4.20962 14.8026 4.26499 14.8934 4.30584 14.8856C4.34669 14.8777 4.36449 14.7729 4.35961 14.6135C4.35642 14.5154 4.38434 14.4189 4.43936 14.3377C4.49438 14.2566 4.57368 14.1949 4.6659 14.1615C4.81578 14.107 4.90655 14.0516 4.8987 14.0108C4.89086 13.9699 4.78603 13.9521 4.62661 13.957Z" fill="#5AC4FF"/>
<path d="M1.92801 18.1097C1.88098 18.1112 1.83468 18.0978 1.79573 18.0714C1.75678 18.045 1.72717 18.007 1.71117 17.9627C1.685 17.8908 1.65842 17.8473 1.63883 17.851C1.61925 17.8548 1.6107 17.9051 1.61303 17.9816C1.61456 18.0286 1.60116 18.0749 1.57476 18.1139C1.54836 18.1528 1.51032 18.1824 1.46607 18.1984C1.39415 18.2246 1.3506 18.2512 1.35435 18.2708C1.35811 18.2904 1.40842 18.2989 1.48491 18.2966C1.53194 18.295 1.57824 18.3084 1.6172 18.3348C1.65615 18.3612 1.68575 18.3993 1.70176 18.4435C1.72794 18.5154 1.75451 18.559 1.7741 18.5552C1.79369 18.5515 1.80223 18.5012 1.7999 18.4247C1.79837 18.3777 1.81176 18.3313 1.83816 18.2924C1.86456 18.2534 1.90261 18.2238 1.94686 18.2078C2.01877 18.1817 2.06233 18.1551 2.05856 18.1355C2.0548 18.1159 2.0045 18.1073 1.92801 18.1097Z" fill="white"/>
</svg>
