<svg width="390" height="925" viewBox="0 0 390 925" fill="none" xmlns="http://www.w3.org/2000/svg">
<path fill-rule="evenodd" clip-rule="evenodd" d="M-114.4 50.4859C-102.825 33.4252 -39.1283 53.9362 52.2431 100.162C108.386 128.667 169.015 142.121 225.445 138.599C281.876 135.076 331.213 114.758 366.395 80.5523C423.756 25.0483 508.378 -10.8192 530.652 4.12905L523.807 284.449L529.87 284.034L532.104 921.276C506.54 936.661 455.558 903.358 395.613 838.261C358.858 798.152 305.577 772.709 243.402 765.575C181.227 758.44 113.349 769.979 49.4895 798.543C-54.4291 844.84 -126.139 864.059 -137.869 844.395C-149.247 825.321 -147.75 419.981 -65.8227 331.598L-114.4 50.4859Z" fill="#333333"/>
</svg>
