<svg width="44" height="56" viewBox="0 0 44 56" fill="none" xmlns="http://www.w3.org/2000/svg">
<path d="M0.609962 34.4825C0.596258 33.3137 2.91635 32.2465 6.596 31.5042C8.85932 31.0529 10.9406 29.7527 12.5418 27.7899C14.1429 25.8271 15.1819 23.3024 15.5097 20.5774C16.0499 16.1467 16.8897 13.3406 17.8638 13.3322C18.8379 13.3237 19.7432 16.1148 20.3873 20.5354C20.7792 23.2541 21.8772 25.7603 23.5241 27.6949C25.171 29.6295 27.2823 30.8933 29.5557 31.3054C33.252 31.984 35.5967 33.0107 35.6104 34.1796C35.6241 35.3484 33.304 36.4157 29.6239 37.1581C27.3607 37.6097 25.2795 38.9098 23.6784 40.8725C22.0773 42.8353 21.0384 45.3598 20.7103 48.0847C20.17 52.5154 19.3304 55.3218 18.3563 55.3303C17.3821 55.3387 16.4767 52.5476 15.8327 48.1272C15.4411 45.4084 14.3432 42.9021 12.6963 40.9675C11.0494 39.0328 8.93808 37.7689 6.66463 37.3569C2.96833 36.6784 0.623667 35.6515 0.609962 34.4825Z" fill="#0044BB"/>
<path d="M28 8.92446C28.0037 8.42349 29.0733 7.98484 30.7615 7.69627C31.7998 7.52104 32.7622 6.98061 33.5108 6.1524C34.2595 5.32419 34.7559 4.25071 34.9291 3.08568C35.2139 1.19145 35.6217 -0.00418927 36.067 1.07504e-05C36.5123 0.00421077 36.9022 1.20744 37.1588 3.10681C37.3147 4.27491 37.7951 5.35759 38.5313 6.19977C39.2675 7.04195 40.2216 7.60043 41.2572 7.79527C42.9408 8.11568 44.0037 8.57442 44 9.07539C43.9963 9.57635 42.9267 10.0151 41.2383 10.3037C40.2001 10.479 39.2377 11.0194 38.4891 11.8476C37.7405 12.6758 37.244 13.7492 37.0708 14.9142C36.7859 16.8084 36.3782 18.0042 35.9329 18C35.4876 17.9958 35.0976 16.7926 34.8411 14.8932C34.6853 13.7251 34.205 12.6424 33.4688 11.8002C32.7326 10.958 31.7784 10.3995 30.7428 10.2047C29.0592 9.88428 27.9963 9.42546 28 8.92446Z" fill="#0044BB"/>
</svg>
