<svg width="46" height="50" viewBox="0 0 46 50" fill="none" xmlns="http://www.w3.org/2000/svg">
<path d="M46 31.1595C45.992 32.2171 43.7192 33.1431 40.1319 33.7523C37.9254 34.1223 35.8803 35.2632 34.2895 37.0116C32.6986 38.76 31.6437 41.0263 31.2758 43.4858C30.6705 47.4847 29.8039 50.0088 28.8576 50C27.9114 49.9911 27.0828 47.451 26.5375 43.4412C26.2064 40.9752 25.1855 38.6895 23.621 36.9116C22.0566 35.1337 20.029 33.9546 17.8284 33.5433C14.2507 32.8669 11.9921 31.8984 12 30.8408C12.008 29.7833 14.2807 28.8571 17.8685 28.2478C20.0749 27.8777 22.1199 26.7368 23.7107 24.9884C25.3015 23.24 26.3564 20.9739 26.7245 18.5145C27.3299 14.5156 28.1964 11.9912 29.1426 12C30.0889 12.0089 30.9176 14.5491 31.4627 18.5587C31.7937 21.0248 32.8145 23.3105 34.3789 25.0885C35.9432 26.8665 37.971 28.0456 40.1716 28.4568C43.7493 29.1332 46.0079 30.1018 46 31.1595Z" fill="#5AC4FF"/>
<path d="M22 12.1007C21.9949 12.7687 20.5242 13.3535 18.203 13.7383C16.7752 13.972 15.452 14.6925 14.4226 15.7968C13.3932 16.9011 12.7106 18.3324 12.4725 19.8858C12.0809 22.4114 11.5202 24.0056 10.9079 24C10.2956 23.9944 9.75949 22.3901 9.40664 19.8576C9.19235 18.3001 8.53177 16.8565 7.5195 15.7336C6.50723 14.6107 5.19524 13.8661 3.77134 13.6063C1.45634 13.1791 -0.00512007 12.5674 1.34802e-05 11.8995C0.00514703 11.2315 1.47576 10.6466 3.79728 10.2618C5.22493 10.028 6.54819 9.30743 7.57752 8.2032C8.60685 7.09897 9.28945 5.66773 9.52764 4.11444C9.91935 1.58881 10.48 -0.00558552 11.0923 1.47048e-05C11.7046 0.00561493 12.2408 1.60993 12.5935 4.14234C12.8077 5.69985 13.4682 7.14348 14.4804 8.26643C15.4927 9.38938 16.8047 10.134 18.2287 10.3938C20.5437 10.821 22.0051 11.4327 22 12.1007Z" fill="#5AC4FF"/>
</svg>
